<svg width="16" height="16" viewBox="0 0 16 16" fill="none" xmlns="http://www.w3.org/2000/svg">
<g clip-path="url(#clip0_4_114)">
<path d="M2.66667 10.6667V14.6667H13.3333V10.6667C13.3333 9.93334 12.7333 9.33334 12 9.33334H4C3.26667 9.33334 2.66667 9.93334 2.66667 10.6667ZM12 12H4V10.6667H12V12ZM8 1.33334C6.16 1.33334 4.66667 2.82668 4.66667 4.66668L8 9.33334L11.3333 4.66668C11.3333 2.82668 9.84 1.33334 8 1.33334ZM8 7.33334L6 4.66668C6 3.56001 6.89333 2.66668 8 2.66668C9.10667 2.66668 10 3.56001 10 4.66668L8 7.33334Z" fill="#323232"/>
</g>
<defs>
<clipPath id="clip0_4_114">
<rect width="16" height="16" fill="white"/>
</clipPath>
</defs>
</svg>
