<?xml version="1.0" encoding="UTF-8" ?>
<!DOCTYPE svg PUBLIC "-//W3C//DTD SVG 1.1//EN" "http://www.w3.org/Graphics/SVG/1.1/DTD/svg11.dtd">
<svg width="272pt" height="105pt" viewBox="0 0 272 105" version="1.1" xmlns="http://www.w3.org/2000/svg">
<g id="color_fffffeff">
<path fill="#fffffe" opacity="1.00" d=" M 0.00 0.00 L 272.00 0.00 L 272.00 105.00 L 0.00 105.00 L 0.00 0.00 M 21.11 10.99 C 17.30 25.58 13.69 40.23 9.86 54.81 C 7.45 64.53 4.63 74.15 2.61 83.97 C 6.26 84.01 9.91 83.98 13.55 83.87 C 15.14 76.86 16.87 69.88 18.72 62.93 C 23.48 63.01 28.24 63.01 33.00 63.05 C 34.76 70.00 36.43 76.98 38.14 83.95 C 41.77 84.00 45.40 84.01 49.03 83.92 C 43.14 59.59 36.66 35.41 30.57 11.14 C 27.42 11.02 24.27 10.98 21.11 10.99 M 103.81 11.02 C 103.68 35.35 103.68 59.68 103.81 84.00 C 107.44 84.02 111.07 84.00 114.70 83.94 C 114.63 73.63 114.63 63.33 114.69 53.02 C 119.76 52.96 124.85 53.28 129.92 52.87 C 136.50 52.30 142.13 47.21 144.00 40.98 C 145.79 34.95 145.64 28.33 143.63 22.38 C 141.40 15.84 134.85 11.27 128.00 11.05 C 119.94 10.80 111.87 11.08 103.81 11.02 M 210.93 15.96 C 204.98 21.86 202.49 30.27 201.42 38.37 C 200.37 47.07 200.34 56.01 202.38 64.57 C 204.08 71.43 207.65 78.34 213.96 81.99 C 217.83 84.35 222.55 84.36 226.91 83.94 C 232.39 83.30 237.21 79.49 239.61 74.59 C 242.59 68.52 243.22 61.66 243.58 55.00 C 240.03 54.98 236.47 55.00 232.92 55.04 C 232.43 59.90 232.33 64.93 230.49 69.52 C 229.30 72.54 226.46 75.32 223.01 75.09 C 219.60 75.13 216.96 72.41 215.35 69.67 C 212.33 64.29 211.53 58.00 211.33 51.93 C 211.16 43.76 211.49 35.31 214.66 27.66 C 216.16 24.10 218.62 20.55 222.41 19.20 C 225.47 18.23 228.53 20.48 230.01 23.02 C 232.48 27.22 232.61 32.24 233.30 36.93 C 236.65 37.00 240.00 37.02 243.36 36.98 C 243.46 27.89 240.87 17.40 232.44 12.55 C 225.51 9.47 216.36 10.31 210.93 15.96 M 57.40 75.08 C 57.38 78.36 57.38 81.64 57.39 84.92 C 61.03 84.98 64.66 85.01 68.30 84.99 C 68.36 81.66 68.36 78.33 68.30 75.01 C 64.66 74.99 61.03 75.02 57.40 75.08 M 155.41 75.08 C 155.40 78.36 155.40 81.64 155.41 84.92 C 159.04 84.98 162.67 85.01 166.31 84.98 C 166.37 81.65 166.37 78.33 166.31 75.01 C 162.67 74.99 159.04 75.02 155.41 75.08 M 253.39 75.07 C 253.37 78.36 253.37 81.64 253.39 84.93 C 257.02 85.00 260.64 85.02 264.27 84.99 C 264.35 81.66 264.35 78.34 264.27 75.01 C 260.64 74.98 257.01 75.00 253.39 75.07 Z" />
<path fill="#fffffe" opacity="1.00" d=" M 114.71 18.96 C 118.36 18.98 122.05 18.71 125.66 19.37 C 129.28 20.06 132.57 22.57 133.93 26.03 C 135.48 30.08 135.55 34.79 133.77 38.77 C 132.34 41.95 129.24 44.29 125.79 44.78 C 122.11 45.26 118.39 45.01 114.70 45.01 C 114.63 36.32 114.63 27.64 114.71 18.96 Z" />
<path fill="#fffffe" opacity="1.00" d=" M 20.81 54.94 C 22.29 48.37 23.64 41.73 25.81 35.34 C 27.88 41.76 29.28 48.37 30.88 54.92 C 27.52 54.98 24.17 54.98 20.81 54.94 Z" />
</g>
<g id="color_030103ff">
<path fill="#030103" opacity="1.00" d=" M 21.11 10.99 C 24.27 10.98 27.42 11.02 30.57 11.14 C 36.66 35.41 43.14 59.59 49.03 83.92 C 45.40 84.01 41.77 84.00 38.14 83.95 C 36.43 76.98 34.76 70.00 33.00 63.05 C 28.24 63.01 23.48 63.01 18.72 62.93 C 16.87 69.88 15.14 76.86 13.55 83.87 C 9.91 83.98 6.26 84.01 2.61 83.97 C 4.63 74.15 7.45 64.53 9.86 54.81 C 13.69 40.23 17.30 25.58 21.11 10.99 M 20.81 54.94 C 24.17 54.98 27.52 54.98 30.88 54.92 C 29.28 48.37 27.88 41.76 25.81 35.34 C 23.64 41.73 22.29 48.37 20.81 54.94 Z" />
<path fill="#030103" opacity="1.00" d=" M 103.81 11.02 C 111.87 11.08 119.94 10.80 128.00 11.05 C 134.85 11.27 141.40 15.84 143.63 22.38 C 145.64 28.33 145.79 34.95 144.00 40.98 C 142.13 47.21 136.50 52.30 129.92 52.87 C 124.85 53.28 119.76 52.96 114.69 53.02 C 114.63 63.33 114.63 73.63 114.70 83.94 C 111.07 84.00 107.44 84.02 103.81 84.00 C 103.68 59.68 103.68 35.35 103.81 11.02 M 114.71 18.96 C 114.63 27.64 114.63 36.32 114.70 45.01 C 118.39 45.01 122.11 45.26 125.79 44.78 C 129.24 44.29 132.34 41.95 133.77 38.77 C 135.55 34.79 135.48 30.08 133.93 26.03 C 132.57 22.57 129.28 20.06 125.66 19.37 C 122.05 18.71 118.36 18.98 114.71 18.96 Z" />
<path fill="#030103" opacity="1.00" d=" M 210.93 15.96 C 216.36 10.31 225.51 9.47 232.44 12.55 C 240.87 17.40 243.46 27.89 243.36 36.98 C 240.00 37.02 236.65 37.00 233.30 36.93 C 232.61 32.24 232.48 27.22 230.01 23.02 C 228.53 20.48 225.47 18.23 222.41 19.20 C 218.62 20.55 216.16 24.10 214.66 27.66 C 211.49 35.31 211.16 43.76 211.33 51.93 C 211.53 58.00 212.33 64.29 215.35 69.67 C 216.96 72.41 219.60 75.13 223.01 75.09 C 226.46 75.32 229.30 72.54 230.49 69.52 C 232.33 64.93 232.43 59.90 232.92 55.04 C 236.47 55.00 240.03 54.98 243.58 55.00 C 243.22 61.66 242.59 68.52 239.61 74.59 C 237.21 79.49 232.39 83.30 226.91 83.94 C 222.55 84.36 217.83 84.35 213.96 81.99 C 207.65 78.34 204.08 71.43 202.38 64.57 C 200.34 56.01 200.37 47.07 201.42 38.37 C 202.49 30.27 204.98 21.86 210.93 15.96 Z" />
<path fill="#030103" opacity="1.00" d=" M 57.40 75.08 C 61.03 75.02 64.66 74.99 68.30 75.01 C 68.36 78.33 68.36 81.66 68.30 84.99 C 64.66 85.01 61.03 84.98 57.39 84.92 C 57.38 81.64 57.38 78.36 57.40 75.08 Z" />
<path fill="#030103" opacity="1.00" d=" M 155.41 75.08 C 159.04 75.02 162.67 74.99 166.31 75.01 C 166.37 78.33 166.37 81.65 166.31 84.98 C 162.67 85.01 159.04 84.98 155.41 84.92 C 155.40 81.64 155.40 78.36 155.41 75.08 Z" />
<path fill="#030103" opacity="1.00" d=" M 253.39 75.07 C 257.01 75.00 260.64 74.98 264.27 75.01 C 264.35 78.34 264.35 81.66 264.27 84.99 C 260.64 85.02 257.02 85.00 253.39 84.93 C 253.37 81.64 253.37 78.36 253.39 75.07 Z" />
</g>
</svg>
