<?xml version="1.0" encoding="utf-8"?>
<!-- Generator: Adobe Illustrator 15.1.0, SVG Export Plug-In . SVG Version: 6.00 Build 0)  -->
<!DOCTYPE svg PUBLIC "-//W3C//DTD SVG 1.1//EN" "http://www.w3.org/Graphics/SVG/1.1/DTD/svg11.dtd">
<svg version="1.1" id="Layer_1" xmlns="http://www.w3.org/2000/svg" xmlns:xlink="http://www.w3.org/1999/xlink" x="0px" y="0px"
	 width="436.668px" height="56.695px" viewBox="0 0 436.668 56.695" enable-background="new 0 0 436.668 56.695"
	 xml:space="preserve">
<g>
	<rect x="351.762" y="5.626" width="8.297" height="8.603"/>
	<path d="M264.822,48.986c2.028,4.9,6.266,7.709,11.624,7.709c6.4,0,9.81-5.16,9.81-5.16v4.189h7.929V22.396h-8.245v18.402
		c0,1.455-0.076,3.285-0.667,4.535c-1.198,2.51-3.528,3.947-6.4,3.947c-2.812,0-5.006-1.396-6.175-3.938
		c-0.598-1.301-0.681-2.807-0.681-4.248l-0.005-18.703h-8.236l0.003,19.47C263.778,44.255,263.903,46.773,264.822,48.986z"/>
	<rect x="351.826" y="22.434" width="8.177" height="33.328"/>
	<path d="M251.328,49.107c-3.433-0.309-4.707-1.805-4.707-5.41V29.902h6.278v-7.487h-6.278v-11.9l-8.187-0.002v11.902h-3.303v7.487
		h3.303v15.244c-0.005,3.432,0.973,6.16,2.916,8.098c3.014,3.031,7.505,3.355,9.294,3.355c1.02,0,2.315-0.184,2.315-0.184v-7.344
		C252.96,49.072,251.914,49.16,251.328,49.107z"/>
	<path d="M18.752,2.721L0,55.728h9.184l3.104-9.582h18.922l3.105,9.582h9.244L25.021,2.721H18.752z M28.593,38.044H14.904
		l6.842-21.155L28.593,38.044z"/>
	<g>
		<path d="M413.065,45.255L413.065,45.255c-0.305,6.588,5.244,11.32,11.75,11.32c5.831,0,11.863-3.947,11.863-10.553
			c0-4.266-2.4-7.529-6.963-9.223c-2.082-0.773-4.862-1.146-6.741-1.805c-1.368-0.48-2.436-1.771-2.388-3.365
			c0.068-2.277,1.724-3.691,4.321-3.691c4.755,0,4.702,4.507,4.702,4.507l6.8-1.336c0,0-0.872-9.693-11.502-9.693
			c-6.088,0-11.43,4.768-11.43,10.203c0,4.275,2.569,7.93,7.048,9.633c2.641,1.002,5.602,1.127,7.047,2.031
			c0.952,0.594,1.739,1.33,1.739,2.873c0,1.809-1.188,3.777-4.524,3.867h-0.115c-2.15,0-4.843-1.588-4.565-4.77l0,0H413.065z"/>
	</g>
	<path d="M387.485,21.434c-9.794,0-17.738,7.869-17.738,17.578c0,9.711,7.944,17.58,17.738,17.58c9.797,0,17.738-7.869,17.738-17.58
		C405.224,29.302,397.282,21.434,387.485,21.434z M387.485,49.156c-5.335,0-9.654-4.543-9.654-10.145
		c0-5.6,4.319-10.143,9.654-10.143c5.337,0,9.659,4.543,9.659,10.143C397.145,44.613,392.822,49.156,387.485,49.156z"/>
	<path d="M67.022,49.144c-5.336,0-9.658-4.543-9.658-10.145s4.322-10.145,9.658-10.145c3.834,0,7.153,2.354,8.708,5.756l6.929-3.912
		c-2.991-5.521-8.872-9.276-15.637-9.276c-9.795,0-17.733,7.868-17.737,17.573l0,0V39l0,0l0,0c0,0,0,0,0,0.004l0,0
		c0.004,9.703,7.942,17.576,17.737,17.576c6.765,0,12.646-3.756,15.637-9.277l-6.929-3.91
		C74.176,46.792,70.856,49.144,67.022,49.144z"/>
	<path d="M204.211,23.375c-1.665-1.103-2.684-2.748-2.684-5.155c0-4.047,3.391-7.34,7.603-7.34c7.248,0,7.928,7.719,7.928,7.719
		l8.567-1.492c-0.427-4.337-3.516-14.154-16.495-14.36c-9.074-0.144-16.463,6.939-16.463,15.474c0,5.693,2.92,10.818,8.024,13.19
		c3.431,1.594,5.866,2.035,8.12,2.451c2.524,0.459,4.267,0.822,5.586,1.998c1.488,1.33,2.375,3.203,2.375,5.244
		c0,4.051-3.43,7.348-7.646,7.348c-2.011,0-7.48-0.92-7.48-8.432l-8.897-0.008c0,14.072,12.121,16.576,16.378,16.576
		c9.122,0,16.547-6.947,16.547-15.48c0-5.391-2.278-9.834-6.439-12.531c-2.579-1.67-5.468-2.355-8.051-2.853
		C208.781,25.258,206.445,24.861,204.211,23.375z"/>
	<path d="M331.411,0v26.112c-2.568-3.013-7.055-4.679-10.84-4.679c-9.794,0-16.883,8.041-16.883,17.578
		c0,9.352,7.089,17.58,16.883,17.58c4.556,0,9.232-2.701,10.84-4.965v4.127h7.954V0H331.411z M321.421,49.156
		c-5.332,0-9.654-4.543-9.654-10.145c0-5.6,4.322-10.143,9.654-10.143c5.335,0,9.66,4.543,9.66,10.143
		C331.081,44.613,326.756,49.156,321.421,49.156z"/>
	<path d="M167.541,39.011c0-9.709-7.942-17.578-17.738-17.578c-9.795,0-17.734,7.869-17.734,17.578
		c0,9.711,7.939,17.58,17.734,17.58c5.885,0,11.098-2.842,14.324-7.215l-6.374-4.602c-1.743,2.646-4.653,4.381-7.95,4.381
		c-4.385,0-8.09-3.072-9.266-7.139l26.769-0.004C167.458,40.945,167.541,39.986,167.541,39.011z M140.772,35.203
		c1.382-3.826,4.903-6.546,9.03-6.546c4.128,0,7.653,2.72,9.035,6.546H140.772z"/>
	<path d="M121.506,29.171c-2.029-4.9-6.266-7.708-11.625-7.708c-6.4,0-9.809,5.16-9.809,5.16V22.42h-7.93v33.341h8.246V37.359
		c0-1.455,0.075-3.285,0.666-4.535c1.198-2.51,3.528-3.947,6.4-3.947c2.813,0,5.006,1.396,6.175,3.937
		c0.598,1.301,0.682,2.807,0.682,4.248l0.005,18.703h8.235l-0.002-19.471C122.55,33.902,122.425,31.384,121.506,29.171z"/>
</g>
</svg>
