<?xml version="1.0" encoding="UTF-8" standalone="no"?>
<!-- Generator: Adobe Illustrator 19.2.1, SVG Export Plug-In . SVG Version: 6.00 Build 0)  -->

<svg
   version="1.1"
   id="layer"
   x="0px"
   y="0px"
   viewBox="0 0 619.94476 226"
   xml:space="preserve"
   sodipodi:docname="stone-island-logo-vector.svg"
   width="619.94476"
   height="226"
   inkscape:version="1.1.1 (3bf5ae0d25, 2021-09-20)"
   xmlns:inkscape="http://www.inkscape.org/namespaces/inkscape"
   xmlns:sodipodi="http://sodipodi.sourceforge.net/DTD/sodipodi-0.dtd"
   xmlns="http://www.w3.org/2000/svg"
   xmlns:svg="http://www.w3.org/2000/svg"><defs
   id="defs27" /><sodipodi:namedview
   id="namedview25"
   pagecolor="#ffffff"
   bordercolor="#999999"
   borderopacity="1"
   inkscape:pageshadow="0"
   inkscape:pageopacity="0"
   inkscape:pagecheckerboard="0"
   showgrid="false"
   fit-margin-top="10"
   fit-margin-right="10"
   fit-margin-bottom="10"
   fit-margin-left="10"
   inkscape:zoom="1.1027607"
   inkscape:cx="315.11822"
   inkscape:cy="118.33936"
   inkscape:window-width="1920"
   inkscape:window-height="1001"
   inkscape:window-x="-9"
   inkscape:window-y="-9"
   inkscape:window-maximized="1"
   inkscape:current-layer="layer" />
<path
   d="m 330.94477,148 c 4.2,0 5.4,2.7 5.4,6.9 v 47.3 c 0,4.6 -1.2,6.9 -5.4,6.9 v 5.4 h 25.7 v -5.4 c -4.6,-0.4 -5.8,-1.9 -5.8,-7.7 v -47.3 c 0,-4.6 1.5,-6.9 5.8,-6.9 v -5.4 h -25.7 z"
   id="path2" />
<path
   d="m 394.34477,179.5 c -3.8,-4.6 -7.7,-7.7 -8.8,-9.2 l -7.7,-7.7 c -2.7,-2.3 -3.8,-4.6 -4.2,-6.5 -0.8,-1.9 -0.8,-5.8 1.2,-7.7 2,-1.9 4.2,-2.7 6.9,-2.3 2.7,0.4 5.8,2.7 7.3,4.6 1.5,2.3 3.1,5 3.8,6.9 0.4,1.9 0.8,3.1 0.8,3.5 0,0.4 0.4,1.9 0.4,2.3 h 6.1 v -21.5 h -4.6 c 0,0 -0.4,1.2 -1.2,1.5 -0.8,0.4 -1.2,0 -1.5,0 -0.4,-0.4 -4.2,-1.9 -8.8,-2.7 -4.6,-0.8 -10.4,-0.4 -14.2,1.5 -2.3,1.2 -3.8,2.3 -5.8,3.8 -1.5,1.5 -3.1,3.8 -3.8,5.8 -1.5,3.8 -1.9,8.5 -0.4,12.7 1.5,4.2 4.6,8.1 6.9,10.8 l 5.4,5.4 c 2.3,2.3 5,5 5.8,6.1 1.9,1.9 3.8,3.8 6.5,6.9 2.7,3.5 3.5,6.1 3.1,9.2 -0.4,3.1 -1.9,4.6 -3.5,5.8 -1.9,1.2 -4.6,1.5 -7.3,0.4 -2.7,-1.1 -4.6,-3.1 -5.4,-4.6 -1.2,-1.5 -2.3,-4.6 -3.1,-6.9 -0.8,-2.3 -1.5,-5.4 -1.5,-5.4 h -5.4 v 21.9 h 3.8 c 0.4,-0.4 1.2,-1.5 1.9,-1.9 1.2,-0.8 2.3,-0.4 3.5,0 1.2,0.4 2.3,1.2 4.2,1.5 2.7,0.8 5.4,1.2 8.8,1.2 3.8,-0.4 5,-0.8 7.3,-1.9 2.7,-1.2 5.8,-3.5 8.1,-7.7 2.3,-4.6 2.7,-10 1.9,-14.2 -0.8,-4.3 -3.1,-7.4 -6.5,-11.6 z"
   id="path4" />
<path
   d="m 265.94477,209.4 c -5.4,0 -8.5,-3.8 -8.5,-10 v -20 c 7.7,0 14.6,2.7 15.4,9.6 h 5 v -23.4 h -5 c -1.2,6.1 -7.7,8.5 -15.4,8.5 V 148 h 3.8 c 6.9,0 13.4,1.5 17.7,10 h 4.6 v -15.4 h -48 v 5.4 c 4.2,0 6.1,2.3 6.1,6.9 v 46.5 c 0,5 -1.2,7.3 -5.8,7.7 v 5.4 h 46.9 l 1.9,-18.4 h -4.6 c -2.9,8.7 -8.7,13.3 -14.1,13.3 z"
   id="path6" />
<path
   d="m 211.44477,148 c 5.4,0.8 6.5,3.8 6.5,11.5 v 27.3 h -0.4 l -27.3,-44.2 h -20.7 v 5.4 c 2.7,0.8 7.7,2.7 9.6,6.9 v 38.4 c 0,11.1 -1.2,13.8 -6.5,16.1 v 5.4 h 19.6 v -5.4 c -5.8,-1.2 -6.9,-5 -6.9,-11.5 v -38 l 0.4,0.4 33.4,54.9 h 5 v -57.3 c 0,-4.2 0.8,-7.3 2.3,-8.8 1.5,-1.5 5.8,-1.5 5.8,-1.5 v -5.4 h -20.4 v 5.8 z"
   id="path8" />
<path
   d="M 111.54477,142.6 H 55.044769 v 15.8 h 4.6 c 1.9,-9.6 10.8,-10.4 15.8,-10.4 v 54.6 c 0,4.6 -0.8,6.9 -5.8,6.9 v 5.4 h 27.7 v -5.4 c -5.8,-0.4 -5.8,-3.1 -5.8,-7.7 V 148 c 5.4,0 13.100001,1.5 15.000001,10.4 h 5 z"
   id="path10" />
<path
   d="m 45.444769,179.5 c -3.8,-4.6 -7.7,-8.1 -8.8,-9.2 l -7.7,-7.7 c -2.7,-2.3 -3.8,-4.6 -4.2,-6.5 -0.8,-1.9 -0.8,-5.8 1.2,-7.7 2,-1.9 4.2,-2.7 6.9,-2.3 2.7,0.4 5.8,2.7 7.3,4.6 1.5,1.9 3.1,5 3.8,6.9 0.4,1.9 0.8,3.1 0.8,3.5 0,0.4 0.4,1.9 0.4,2.3 h 6.1 v -21.5 h -4.6 c 0,0 -0.4,1.2 -1.2,1.5 -0.8,0.4 -1.2,0 -1.5,0 -0.4,-0.4 -4.2,-1.9 -8.8,-2.7 -4.6,-0.8 -10.4,-0.4 -14.2,1.5 -2.3,1.2 -3.8,2.3 -5.8,3.8 -1.5,1.5 -3.1,3.8 -3.8,5.8 -1.4999999,3.8 -1.8999999,8.5 -0.4,12.7 1.5,4.2 4.2,8.1 6.9,10.8 l 5.4,5.4 c 2.3,2.3 5,5 5.8,6.1 1.9,1.9 3.8,3.8 6.5,6.9 2.7,3.5 3.5,6.1 3.1,9.2 -0.4,3.1 -1.9,4.6 -3.5,5.8 -1.9,1.2 -4.6,1.5 -7.3,0.4 -2.7,-1.2 -4.6,-3.1 -5.4,-4.6 -1.2,-1.5 -2.3,-4.6 -3.1,-6.9 -0.8,-2.4 -1.6,-5.4 -1.6,-5.4 h -5.4 v 21.9 h 3.8 c 0.4,-0.4 1.2,-1.5 1.9,-1.9 1.2,-0.8 2.3,-0.4 3.5,0 1.2,0.4 2.3,1.2 4.2,1.5 2.7,0.8 5.4,1.2 8.8,1.2 3.8,-0.4 5,-0.8 7.3,-1.9 2.7,-1.2 5.8,-3.5 8.1,-7.7 2.3,-4.6 2.7,-10 1.9,-14.2 -0.7,-4.3 -3,-7.4 -6.4,-11.6 z"
   id="path12" />
<path
   d="m 141.14477,141.4 c -8.1,0 -29.6,5 -29.6,36.9 0,31.5 20.4,37.7 29.6,37.7 9.2,0 29.6,-6.1 29.6,-37.7 -0.1,-31.9 -22,-36.9 -29.6,-36.9 z m 8.8,61.1 c -1.9,4.2 -3.8,8.1 -8.8,8.1 -5,0 -8.5,-5.4 -9.6,-9.2 -0.8,-3.8 -2.3,-12.3 -1.9,-23.4 0,-10.8 1.2,-18.8 1.9,-21.9 0.8,-3.1 3.5,-9.6 9.6,-9.6 4.2,0 7.7,3.5 9.2,8.5 1.5,5 2.3,16.1 2.3,23.1 0,6.8 -0.8,20.2 -2.7,24.4 z"
   id="path14" />
<path
   d="m 324.34477,82.6 -15,-72.6 -14.6,72.6 -72.6,14.6 72.6,14.6 14.6,72.6 14.6,-72.6 72.6,-14.6 z m -92.9,14.6 64.2,-13.1 12.7,13.1 z m 78,78 -13.1,-64.2 13.1,-12.7 z m 0,-156 13.1,64.2 -13.1,12.7 z m 14.2,91.1 -12.7,-13.1 h 76.8 z"
   id="path16" />
<path
   d="m 539.54477,148 c 5.4,0.8 6.5,4.2 6.5,11.9 v 27.3 h -0.3 l -26.9,-44.2 h -18.4 v 5.4 c 2.7,0.8 6.9,6.1 6.9,6.1 v 41.9 c -0.4,5 -0.4,10 -2.7,12.3 -0.8,0.8 -1.5,0.8 -2.7,0.8 -2.7,0 -4.2,-2.3 -6.9,-12.7 l -13.8,-53.8 h -15 l 1.5,5.8 -13.1,45.3 c -3.1,11.1 -4.6,14.6 -8.1,16.5 v 4.2 h 17.7 v -4.2 c -3.5,-1.2 -5,-4.2 -5,-7.3 0,-1.5 0.8,-4.2 1.2,-6.1 l 1.9,-6.5 h 15.8 l 1.9,8.1 c 0.8,3.5 1.2,5 1.2,6.1 0,2.7 -1.5,5.4 -4.2,6.1 v 4.2 h 43.4 v -4.6 c -5.8,-1.2 -7.3,-5.8 -7.3,-12.3 v -38.4 l 0.4,0.4 33.4,54.9 h 5 v -57.3 c 0,-6.1 0.4,-9.2 4.6,-10 v -5.4 h -17.3 v 5.4 h 0.3 z m -74.9,35.7 6.1,-25 h 0.4 l 5.8,25 z"
   id="path18" />
<path
   d="m 580.24477,142.6 h -20.7 v 5.4 c 2.7,0.8 3.5,3.5 3.5,6.5 v 46.9 c 0,5 0,7.3 -3.5,7.7 v 5.4 h 22.7 c 22.7,0 27.7,-18.8 27.7,-36.1 -0.1,-25.8 -10.1,-35.8 -29.7,-35.8 z m 3.1,66.8 c -3.5,0 -5.4,-1.5 -5.4,-8.1 v -53.4 h 1.9 c 7.3,0 13.4,5.8 13.4,30 0.1,18.5 -1.8,31.5 -9.9,31.5 z"
   id="path20" />
<path
   d="m 427.34477,209.4 c -3.8,0 -3.5,-3.8 -3.5,-11.1 v -43 c 0,-4.6 1.2,-6.9 5.8,-7.3 v -5.4 h -25 v 5.4 c 3.8,0.4 5,2.3 5,7.3 v 46.9 c 0,4.6 -0.8,6.9 -5,7.3 v 5.4 h 39.2 l 2.3,-18.1 h -4.2 c -3.4,8 -9.2,12.6 -14.6,12.6 z"
   id="path22" />
</svg>
